<?xml version="1.0" standalone="no"?>
<!DOCTYPE svg PUBLIC "-//W3C//DTD SVG 20010904//EN"
 "http://www.w3.org/TR/2001/REC-SVG-20010904/DTD/svg10.dtd">
<svg version="1.0" xmlns="http://www.w3.org/2000/svg"
 width="1469.000000pt" height="1086.000000pt" viewBox="0 0 1469.000000 1086.000000"
 preserveAspectRatio="xMidYMid meet">

<g transform="translate(0.000000,1086.000000) scale(0.100000,-0.100000)"
fill="#000000" stroke="none">
<path d="M5300 10839 c-733 -91 -1455 -272 -2065 -519 -178 -72 -522 -240
-685 -335 -268 -155 -506 -329 -594 -432 -384 -453 -891 -1639 -1275 -2983
-410 -1436 -661 -3017 -661 -4176 0 -240 3 -254 78 -376 262 -431 677 -825
1196 -1137 485 -291 1089 -533 1734 -695 365 -91 771 -161 1002 -172 111 -6
131 -4 180 15 30 11 72 34 92 51 33 28 645 857 637 864 -2 1 -60 17 -129 35
-175 47 -626 197 -808 270 -480 192 -941 436 -1277 674 -245 174 -307 252
-309 387 -1 97 26 163 93 231 67 67 133 94 231 93 83 -1 134 -23 235 -104 173
-137 467 -316 764 -464 611 -306 1314 -528 2073 -656 984 -165 2078 -167 3052
-4 1115 186 2134 585 2847 1115 120 90 169 111 254 112 231 4 385 -229 293
-445 -27 -62 -118 -148 -281 -263 -344 -244 -797 -483 -1279 -676 -182 -73
-633 -223 -808 -270 -69 -18 -127 -34 -129 -35 -7 -6 601 -834 632 -860 67
-57 111 -69 242 -68 263 4 778 96 1223 220 1301 362 2257 984 2744 1782 75
122 78 136 78 376 0 1014 -209 2464 -531 3696 -282 1079 -638 2079 -986 2775
-222 443 -401 700 -583 839 -575 439 -1393 785 -2352 995 -340 74 -782 142
-938 145 -91 1 -112 -2 -157 -23 -63 -28 -136 -103 -164 -168 -25 -58 -89
-241 -89 -254 0 -5 9 -9 21 -9 41 0 438 -82 656 -136 665 -162 1314 -409 1833
-695 252 -139 337 -195 375 -247 146 -201 26 -479 -219 -508 -84 -10 -139 9
-307 107 -894 522 -1990 842 -3264 954 -249 22 -783 30 -1020 16 -1351 -84
-2543 -415 -3494 -970 -86 -50 -176 -95 -204 -102 -69 -16 -141 -5 -217 33
-187 95 -227 351 -77 501 19 18 83 63 143 99 583 349 1278 626 2037 812 217
54 527 119 627 132 28 4 50 10 50 14 0 12 -66 198 -89 252 -27 63 -93 134
-156 166 -58 29 -151 37 -275 21z m120 -4784 c158 -24 283 -72 414 -159 266
-177 446 -449 527 -796 29 -121 37 -400 15 -530 -24 -146 -61 -263 -125 -395
-153 -312 -397 -528 -706 -622 -83 -25 -103 -27 -265 -27 -207 0 -274 15 -436
94 -343 167 -579 497 -660 925 -23 121 -24 366 -1 493 52 288 182 538 376 725
139 134 276 216 439 262 159 46 269 54 422 30z m4241 -19 c429 -109 766 -501
855 -996 26 -142 24 -384 -5 -520 -60 -284 -173 -503 -356 -685 -101 -102
-194 -167 -319 -226 -149 -69 -216 -83 -416 -83 -162 0 -182 2 -265 27 -309
94 -553 309 -706 622 -108 222 -144 397 -136 665 6 186 18 256 68 406 63 192
165 360 304 499 220 222 486 332 775 320 65 -3 142 -14 201 -29z"/>
</g>
</svg>
