<?xml version="1.0" encoding="UTF-8"?>
<svg xmlns="http://www.w3.org/2000/svg" xmlns:xlink="http://www.w3.org/1999/xlink" width="36px" height="36px" viewBox="0 0 36 36" version="1.1">
<g id="surface1">
<path style=" stroke:none;fill-rule:evenodd;fill:rgb(0%,0%,0%);fill-opacity:1;" d="M 27.574219 34.167969 C 28.058594 34.511719 28.679688 34.597656 29.238281 34.386719 C 29.792969 34.175781 30.199219 33.699219 30.324219 33.125 C 31.625 27 34.789062 11.496094 35.972656 5.921875 C 36.066406 5.503906 35.914062 5.066406 35.585938 4.785156 C 35.253906 4.503906 34.796875 4.421875 34.390625 4.574219 C 28.097656 6.902344 8.730469 14.171875 0.8125 17.101562 C 0.308594 17.285156 -0.015625 17.769531 0 18.296875 C 0.0195312 18.828125 0.375 19.289062 0.890625 19.445312 C 4.441406 20.507812 9.101562 21.984375 9.101562 21.984375 C 9.101562 21.984375 11.277344 28.5625 12.414062 31.90625 C 12.554688 32.328125 12.886719 32.65625 13.320312 32.769531 C 13.75 32.882812 14.210938 32.765625 14.535156 32.460938 C 16.359375 30.738281 19.179688 28.074219 19.179688 28.074219 C 19.179688 28.074219 24.535156 32.003906 27.574219 34.167969 Z M 11.0625 21.152344 L 13.578125 29.460938 L 14.140625 24.199219 C 14.140625 24.199219 23.871094 15.421875 29.417969 10.421875 C 29.578125 10.273438 29.601562 10.027344 29.464844 9.855469 C 29.332031 9.683594 29.085938 9.640625 28.902344 9.757812 C 22.472656 13.863281 11.0625 21.152344 11.0625 21.152344 Z M 11.0625 21.152344 "/>
</g>
</svg>
