<?xml version="1.0" standalone="no"?>
<!DOCTYPE svg PUBLIC "-//W3C//DTD SVG 20010904//EN"
 "http://www.w3.org/TR/2001/REC-SVG-20010904/DTD/svg10.dtd">
<svg version="1.0" xmlns="http://www.w3.org/2000/svg"
 width="194.000000pt" height="32.000000pt" viewBox="0 0 194.000000 32.000000"
 preserveAspectRatio="xMidYMid meet">

<g transform="translate(0.000000,32.000000) scale(0.100000,-0.100000)"
fill="#000000" stroke="none">
<path d="M30 160 l0 -160 50 0 50 0 0 55 0 55 35 0 35 0 0 -55 0 -55 50 0 50
0 0 84 c0 64 -4 88 -16 100 -8 9 -20 16 -25 16 -5 0 2 24 15 54 13 30 22 57
18 60 -3 3 -25 6 -50 6 l-44 0 -26 -60 c-15 -33 -30 -60 -34 -60 -5 0 -8 27
-8 60 l0 60 -50 0 -50 0 0 -160z"/>
<path d="M381 234 c-24 -66 -31 -101 -31 -160 l0 -74 50 0 50 0 0 35 c0 34 1
35 40 35 39 0 40 -1 40 -35 l0 -35 50 0 50 0 0 79 c0 64 -6 94 -31 160 l-31
81 -78 0 -78 0 -31 -86z m128 -35 c6 -18 11 -34 11 -35 0 -2 -13 -4 -30 -4
-16 0 -30 2 -30 4 0 14 24 66 30 66 4 0 13 -14 19 -31z"/>
<path d="M680 160 l0 -160 50 0 50 0 0 78 c1 57 3 72 11 60 5 -10 19 -22 29
-28 16 -9 25 -6 45 14 l25 25 0 -75 0 -75 53 3 52 3 3 135 c4 180 4 180 -58
180 -50 0 -51 -1 -72 -45 -12 -25 -25 -45 -29 -45 -4 0 -19 20 -33 45 -26 44
-28 45 -76 45 l-50 0 0 -160z"/>
<path d="M1050 161 l0 -161 50 0 50 0 0 45 0 45 55 0 c83 0 113 40 102 137 -8
75 -29 87 -152 91 l-105 4 0 -161z m155 39 c0 -20 -6 -26 -27 -28 -25 -3 -28
0 -28 28 0 28 3 31 28 28 21 -2 27 -8 27 -28z"/>
<path d="M1337 314 c-4 -4 -7 -25 -7 -46 0 -38 0 -38 40 -38 l40 0 0 -115 0
-115 55 0 55 0 0 114 0 115 38 3 c36 3 37 4 37 43 l0 40 -126 3 c-69 1 -128
-1 -132 -4z"/>
<path d="M1630 250 c0 -67 2 -74 40 -124 30 -39 40 -62 40 -89 l0 -37 55 0 55
0 0 37 c0 27 10 50 40 89 38 50 40 57 40 124 l0 71 -47 -3 -48 -3 -5 -57 c-3
-33 -12 -64 -21 -73 -15 -15 -17 -14 -32 8 -9 14 -17 46 -19 73 l-3 49 -47 3
-48 3 0 -71z"/>
</g>
</svg>
