<?xml version="1.0" encoding="UTF-8"?>
<svg version="1.1" xmlns="http://www.w3.org/2000/svg" width="194" height="32">
<path d="M0 0 C10 0 10 0 12.4375 2.3125 C12.953125 3.199375 13.46875 4.08625 14 5 C14.98230498 6.0173873 15.97469597 7.02596117 17 8 C17.28875 7.05125 17.5775 6.1025 17.875 5.125 C19 2 19 2 21 0 C23.34765625 -0.23046875 23.34765625 -0.23046875 26.0625 -0.1875 C27.41021484 -0.17783203 27.41021484 -0.17783203 28.78515625 -0.16796875 C31 -0 31 -0 32 1 C32.08790975 3.29151417 32.10694038 5.58572524 32.09765625 7.87890625 C32.0962413 8.5655687 32.09482635 9.25223114 32.09336853 9.95970154 C32.08775479 12.16067801 32.07520007 14.36155409 32.0625 16.5625 C32.05748676 18.05143083 32.05292355 19.54036324 32.04882812 21.02929688 C32.03778093 24.68623075 32.02050713 28.34310558 32 32 C28.37 32 24.74 32 21 32 C20.505 25.565 20.505 25.565 20 19 C19.01 19.99 18.02 20.98 17 22 C15.35 21.67 13.7 21.34 12 21 C11.34 24.63 10.68 28.26 10 32 C6.7 32 3.4 32 0 32 C0 21.44 0 10.88 0 0 Z " fill="#F68384" transform="translate(68,0)"/>
<path d="M0 0 C5.94 0 11.88 0 18 0 C22.73866056 11.13585232 23.61377807 19.96994987 23 32 C19.7 32 16.4 32 13 32 C12.34 30.02 11.68 28.04 11 26 C9.35 26.33 7.7 26.66 6 27 C5.67 28.65 5.34 30.3 5 32 C1.7 32 -1.6 32 -5 32 C-5.65905283 20.03452966 -4.35366665 11.21069163 0 0 Z M8 11 C7.67 12.32 7.34 13.64 7 15 C8.32 15 9.64 15 11 15 C10.67 13.68 10.34 12.36 10 11 C9.34 11 8.68 11 8 11 Z " fill="#F69C5F" transform="translate(40,0)"/>
<path d="M0 0 C3.3 0 6.6 0 10 0 C10.66 2.64 11.32 5.28 12 8 C13.32 5.36 14.64 2.72 16 0 C19.63 0 23.26 0 27 0 C24.125 9.75 24.125 9.75 23 12 C24.32 12.66 25.64 13.32 27 14 C27 19.94 27 25.88 27 32 C23.7 32 20.4 32 17 32 C17 28.37 17 24.74 17 21 C14.69 21 12.38 21 10 21 C10 24.63 10 28.26 10 32 C6.7 32 3.4 32 0 32 C0 21.44 0 10.88 0 0 Z " fill="#F7B23C" transform="translate(3,0)"/>
<path d="M0 0 C3.196875 -0.061875 6.39375 -0.12375 9.6875 -0.1875 C11.18543091 -0.22846802 11.18543091 -0.22846802 12.71362305 -0.27026367 C21.16645846 -0.34946908 21.16645846 -0.34946908 25 3 C26.95100854 8.85302562 26.96453128 15.49221868 24.75 21.25 C20.19727794 24.14718677 15.24425669 23.3710559 10 23 C10 25.97 10 28.94 10 32 C6.7 32 3.4 32 0 32 C0 21.44 0 10.88 0 0 Z M11 10 C10.67 10.66 10.34 11.32 10 12 C10.33 12.66 10.66 13.32 11 14 C12.32 14 13.64 14 15 14 C15 12.68 15 11.36 15 10 C13.68 10 12.36 10 11 10 Z " fill="#F66DA6" transform="translate(105,0)"/>
<path d="M0 0 C3.3 0 6.6 0 10 0 C10.12117187 0.77085938 10.24234375 1.54171875 10.3671875 2.3359375 C10.53476563 3.33882813 10.70234375 4.34171875 10.875 5.375 C11.11863281 6.87160156 11.11863281 6.87160156 11.3671875 8.3984375 C11.7958802 11.1425115 11.7958802 11.1425115 14 13 C14.99 8.71 15.98 4.42 17 0 C20.3 0 23.6 0 27 0 C27.64022967 8.89207878 27.78786187 15.33398255 22.46875 22.8359375 C20.45583902 25.8017691 19.7556397 28.52405736 19 32 C15.37 32 11.74 32 8 32 C7.08854167 29.33072917 6.17708333 26.66145833 5.265625 23.9921875 C4.08972796 20.8866644 4.08972796 20.8866644 1.875 18.125 C-0.39122774 14.34795377 -0.46461055 11.3841939 -0.25 7.125 C-0.23195312 6.43664062 -0.21390625 5.74828125 -0.1953125 5.0390625 C-0.14863748 3.3587619 -0.07690939 1.67918837 0 0 Z " fill="#F543E6" transform="translate(163,0)"/>
<path d="M0 0 C8.91 0 17.82 0 27 0 C27 2.64 27 5.28 27 8 C26.67 8.33 26.34 8.66 26 9 C23.69 9 21.38 9 19 9 C19 16.59 19 24.18 19 32 C15.37 32 11.74 32 8 32 C8 24.41 8 16.82 8 9 C5.36 9 2.72 9 0 9 C0 6.03 0 3.06 0 0 Z " fill="#F558C6" transform="translate(133,0)"/>
</svg>
